<?xml version="1.0" encoding="UTF-8"?>
<svg width="210mm" height="297mm" version="1.1" viewBox="0 0 210 297" xmlns="http://www.w3.org/2000/svg">
<g transform="translate(74.799 1.4631)">
<path d="m22.197 56.887c0.02199-12.316 0.05138-13.142 0.39874-11.22 0.94072 5.2068 3.3671 10.235 6.9444 14.392 4.1438 4.8146 10.732 8.5419 17.148 9.701 1.9226 0.34737 1.0959 0.37675-11.22 0.39874l-13.295 0.02374zm34.992 12.873c12.101-2.1864 21.906-11.991 24.093-24.093 0.34737-1.9226 0.37675-1.0959 0.39874 11.22l0.02374 13.295-13.295-0.02373c-12.316-0.02199-13.142-0.051377-11.22-0.39875zm-9.0989-0.66216c-6.2998-0.81477-12.892-4.2478-17.301-9.0094-14.227-15.367-8.0181-40.096 11.806-47.02 2.4229-0.84629 6.8512-1.6232 9.2519-1.6232 5.928 0 12.628 2.2404 17.357 5.8045 13.784 10.386 15.58 30.205 3.8829 42.839-6.289 6.7926-15.756 10.205-24.997 9.0094zm21.39-20.664c0.40812-0.40812 0.40812-1.3381 0-1.7462-0.45898-0.45898-34.625-0.45898-35.084 0-0.40812 0.40812-0.40812 1.3381 0 1.7462 0.45898 0.45898 34.625 0.45898 35.084 0zm-1.4203-4.3789c-0.88366-4.0078-2.137-6.3792-4.7202-8.9313-2.6864-2.654-6.7975-4.6286-9.6369-4.6286-0.76796 0-0.79834-0.04151-0.65895-0.90043 0.1209-0.74501 0.04375-0.95522-0.44698-1.2178-0.44869-0.24013-0.75406-0.24408-1.2542-0.01621-0.57143 0.26036-0.64091 0.42552-0.51233 1.2178 0.14241 0.87755 0.11442 0.91664-0.65632 0.91664-2.9224 0-6.9695 1.9751-9.7476 4.7571-2.5123 2.5158-3.9302 5.1712-4.63 8.6705l-0.17194 0.8599h32.596zm-26.771-5.8184c-0.71074-0.24216-0.29636-1.2645 1.0095-2.4905 2.6905-2.526 6.9024-3.8685 6.173-1.9676-0.0888 0.23141-0.33469 0.42075-0.54641 0.42075-0.83921 0-3.2451 1.3885-4.734 2.732-0.86424 0.77989-1.7202 1.3673-1.9021 1.3053zm-3.1448-5.0437c0.82964-1.1972 0.89065-2.1763 0.1759-2.8231-0.519-0.46969-0.519-0.47522 0-1.135 1.2331-1.5676 0.14677-2.8545-1.1263-1.3343-1.0619 1.2679-1.1762 1.959-0.48 2.9007 0.51529 0.69697 0.54021 0.84602 0.20653 1.2355-0.52188 0.60913-0.73702 1.293-0.55557 1.7658 0.26803 0.69848 1.0613 0.42675 1.7795-0.60953zm28.575 0c0.82964-1.1972 0.89065-2.1763 0.1759-2.8231-0.519-0.46969-0.519-0.47522 0-1.135 1.2286-1.5618 0.14368-2.8637-1.1119-1.3343-1.0233 1.2465-1.1551 2.0071-0.50103 2.8918l0.54409 0.73592-0.53299 0.90335c-1.0521 1.7832 0.23977 2.4731 1.4259 0.76142zm-22.078-3.5685c0.12676-0.3334 0.42147-0.7647 0.65491-0.95844 0.58002-0.48137 0.53342-1.6651-0.0971-2.4666-0.51952-0.66046-0.51947-0.66491 0.01252-1.1464 0.72229-0.65366 0.59058-1.8035-0.21977-1.9186-0.38812-0.05511-0.65803 0.08353-0.77264 0.39688-0.09688 0.26487-0.394 0.76552-0.66028 1.1126-0.62756 0.81793-0.61132 1.3849 0.06424 2.2437l0.54837 0.69714-0.54837 0.69714c-0.62729 0.79747-0.68151 1.1806-0.23087 1.6312 0.49288 0.49288 0.99605 0.37658 1.249-0.28869zm15.454-0.28369c0.99819-1.3087 1.1063-2.0425 0.42801-2.9048-0.5084-0.64633-0.52967-0.78011-0.18746-1.1792 0.85143-0.99289 0.82157-2.1699-0.05506-2.1699-0.60194 0-1.8598 1.8161-1.8598 2.6852 0 0.36981 0.23469 0.88477 0.52154 1.1444 0.519 0.46969 0.519 0.47522 0 1.135-0.5149 0.65458-0.68813 1.6598-0.34515 2.0028 0.37026 0.37026 0.84304 0.14505 1.4979-0.71349zm-37.886-5.394-0.036032-13.295 13.295 0.023743c12.316 0.02199 13.142 0.05138 11.22 0.39874-2.9199 0.52755-5.7081 1.5134-8.7007 3.0765-8.442 4.4093-14.072 12.484-15.638 22.43-0.0573 0.3638-0.12039-5.3214-0.14021-12.634zm59.231 12.403c0-1.4773-1.3113-5.9014-2.4813-8.3712-4.2341-8.9382-12.287-15.192-21.769-16.905-1.9226-0.34737-1.0959-0.37675 11.22-0.39874l13.295-0.02374v13.229c0 7.276-0.05953 13.229-0.13229 13.229-0.07276 0-0.13229-0.34192-0.13229-0.75982z" fill-opacity="0"/>
<path d="m48.967 69.999c0.25743-0.06708 0.61462-0.06267 0.79375 0.0098 0.17913 0.07248-0.03149 0.12736-0.46806 0.12197-0.43656-0.0054-0.58313-0.06469-0.32569-0.13177zm5.2917 0c0.25743-0.06708 0.61462-0.06267 0.79375 0.0098 0.17913 0.07248-0.03149 0.12736-0.46806 0.12197-0.43656-0.0054-0.58312-0.06469-0.32569-0.13177zm-5.429-0.78562c0.1819-0.0734 0.47956-0.0734 0.66146 0s0.03307 0.13345-0.33073 0.13345c-0.3638 0-0.51263-0.06005-0.33073-0.13345zm5.429-0.0081c0.25743-0.06708 0.61462-0.06267 0.79375 0.0098 0.17913 0.07248-0.03149 0.12736-0.46806 0.12197-0.43656-0.0054-0.58312-0.06469-0.32569-0.13177zm2.2605-0.26197c0.191-0.07643 0.4192-0.06703 0.50712 0.02088 0.08792 0.08792-0.06835 0.15045-0.34727 0.13896-0.30823-0.0127-0.37092-0.07539-0.15985-0.15985zm-23.003-6.1031c-0.32911-0.41964-0.31975-0.429 0.0999-0.0999 0.25466 0.19972 0.46302 0.40808 0.46302 0.46302 0 0.21776-0.21727 0.0776-0.56292-0.36312zm-2.7543-1.4552-1.313-1.3891 1.3891 1.313c0.76398 0.72213 1.3891 1.3472 1.3891 1.3891 0 0.19743-0.24512-0.02223-1.4652-1.313zm42.079 0.06615c0.56839-0.58208 1.093-1.0583 1.1657-1.0583s-0.33276 0.47625-0.90114 1.0583c-0.56839 0.58208-1.093 1.0583-1.1657 1.0583s0.33276-0.47625 0.90114-1.0583zm-41.706-0.72763c-0.32911-0.41964-0.31975-0.429 0.0999-0.0999 0.25466 0.19972 0.46302 0.40808 0.46302 0.46302 0 0.21776-0.21727 0.0776-0.56292-0.36312zm49.267-15.566c0.0127-0.30823 0.07539-0.37092 0.15985-0.15985 0.07643 0.191 0.06703 0.4192-0.02088 0.50712-0.08792 0.08792-0.15045-0.06835-0.13896-0.34727zm-58.178-2.0946c0.0054-0.43656 0.06469-0.58312 0.13177-0.32569 0.06708 0.25743 0.06267 0.61462-0.0098 0.79375-0.07248 0.17913-0.12736-0.03149-0.12197-0.46806zm0.78395 0.13229c0-0.3638 0.06005-0.51263 0.13345-0.33073 0.0734 0.1819 0.0734 0.47956 0 0.66146s-0.13345 0.03307-0.13345-0.33073zm57.679 0c0-0.3638 0.06006-0.51263 0.13345-0.33073 0.0734 0.1819 0.0734 0.47956 0 0.66146s-0.13345 0.03307-0.13345-0.33073zm0.80356-0.13229c0.0054-0.43656 0.06469-0.58312 0.13177-0.32569 0.06708 0.25743 0.06267 0.61462-0.0098 0.79375-0.07248 0.17913-0.12736-0.03149-0.12197-0.46806zm0.0098-5.1594c0-0.50932 0.05445-0.71768 0.121-0.46302 0.06655 0.25466 0.06655 0.67138 0 0.92604-0.06655 0.25466-0.121 0.0463-0.121-0.46302zm-59.276-0.13229c0.0054-0.43656 0.06469-0.58313 0.13177-0.32569 0.06708 0.25743 0.06267 0.61462-0.0098 0.79375-0.07248 0.17913-0.12736-0.03149-0.12197-0.46806zm20.454-0.39688c0.56839-0.58208 1.093-1.0583 1.1657-1.0583s-0.33275 0.47625-0.90114 1.0583c-0.56839 0.58208-1.093 1.0583-1.1657 1.0583s0.33275-0.47625 0.90114-1.0583zm38.019 0.39688c0.0054-0.43656 0.06469-0.58313 0.13177-0.32569 0.06708 0.25743 0.06267 0.61462-0.0098 0.79375-0.07248 0.17913-0.12736-0.03149-0.12197-0.46806zm-57.689-0.13229c0-0.3638 0.06005-0.51263 0.13345-0.33073 0.0734 0.1819 0.0734 0.47956 0 0.66146s-0.13345 0.03307-0.13345-0.33073zm41.199-1.5214c-0.32911-0.41964-0.31975-0.429 0.0999-0.09989 0.44073 0.34564 0.58089 0.56292 0.36312 0.56292-0.05494 0-0.2633-0.20836-0.46302-0.46302zm16.194-0.48507c0.0127-0.30822 0.07539-0.37092 0.15985-0.15985 0.07643 0.191 0.06703 0.4192-0.02088 0.50712-0.08792 0.08792-0.15045-0.06835-0.13896-0.34727zm-42.619-2.3268c0-0.05494 0.20836-0.2633 0.46302-0.46302 0.41964-0.32911 0.429-0.31975 0.0999 0.0999-0.34564 0.44073-0.56292 0.58089-0.56292 0.36313zm28.575 0c0-0.05494 0.20836-0.2633 0.46302-0.46302 0.41965-0.32911 0.429-0.31975 0.0999 0.0999-0.34564 0.44073-0.56292 0.58089-0.56292 0.36313zm-18.835-0.61001c0.191-0.07643 0.4192-0.06703 0.50712 0.02089 0.08792 0.08792-0.06835 0.15045-0.34727 0.13896-0.30822-0.0127-0.37092-0.07539-0.15985-0.15985zm-10.666-0.61301c0.26339-0.29104 0.53842-0.52917 0.61118-0.52917 0.07276 0-0.08321 0.23812-0.3466 0.52917-0.26339 0.29104-0.53842 0.52917-0.61118 0.52917-0.07276 0 0.08321-0.23812 0.3466-0.52917zm28.443 0.16469c0-0.05494 0.20836-0.2633 0.46302-0.46302 0.41964-0.32911 0.429-0.31975 0.0999 0.09989-0.34564 0.44073-0.56292 0.58089-0.56292 0.36313zm-29.062-2.5459c0-0.3638 0.06005-0.51263 0.13345-0.33073 0.0734 0.1819 0.0734 0.47956 0 0.66146s-0.13345 0.03307-0.13345-0.33073zm7.3666 0.42773c0-0.05579 0.23829-0.16375 0.52953-0.23991 0.29124-0.07616 0.46281-0.03052 0.38126 0.10143-0.14241 0.23043-0.91079 0.34725-0.91079 0.13848zm14.964-0.13848c-0.08155-0.13195 0.09002-0.1776 0.38126-0.10143 0.6178 0.16156 0.69589 0.34134 0.14827 0.34134-0.20969 0-0.44798-0.10796-0.52953-0.23991zm6.2233-0.17902c0.0127-0.30822 0.07539-0.37092 0.15985-0.15985 0.07643 0.191 0.06703 0.4192-0.02088 0.50712-0.08792 0.08792-0.15045-0.06835-0.13896-0.34727zm-27.008-0.21014c0-0.05494 0.20836-0.2633 0.46302-0.46302 0.41964-0.32911 0.429-0.31975 0.0999 0.0999-0.34564 0.44073-0.56292 0.58089-0.56292 0.36313zm5.3126-0.31903c0.0127-0.30822 0.07539-0.37092 0.15985-0.15985 0.07643 0.191 0.06703 0.4192-0.02089 0.50712-0.08792 0.08792-0.15045-0.06835-0.13896-0.34727zm16.648 0.23944c0-0.14722 0.26789-0.49449 0.59531-0.7717l0.59531-0.50403-0.52635 0.66146c-0.28949 0.3638-0.55738 0.71107-0.59531 0.7717-0.03793 0.06063-0.06897-0.01021-0.06897-0.15743zm6.6146 0.07958c0-0.05494 0.20836-0.2633 0.46302-0.46302 0.41965-0.32911 0.429-0.31975 0.0999 0.0999-0.34564 0.44073-0.56292 0.58089-0.56292 0.36313zm-29.898-0.79375c0-0.05494 0.20836-0.2633 0.46302-0.46302 0.41964-0.32911 0.429-0.31975 0.0999 0.0999-0.34564 0.44073-0.56292 0.58089-0.56292 0.36313zm29-0.4695c0.27562-0.38593 0.55405-0.65051 0.61872-0.58796 0.06468 0.06255-0.16083 0.37831-0.50113 0.70169l-0.61873 0.58796zm-6.7749-0.05966c0-0.05494 0.20836-0.2633 0.46302-0.46302 0.41964-0.32911 0.429-0.31975 0.0999 0.09989-0.34564 0.44073-0.56292 0.58089-0.56292 0.36313zm2.1376-0.8482c0.0127-0.30822 0.07539-0.37092 0.15985-0.15985 0.07643 0.191 0.06703 0.4192-0.02087 0.50712-0.08792 0.08792-0.15045-0.06835-0.13896-0.34727zm-15.93-1.367c-0.32911-0.41964-0.31975-0.429 0.09989-0.0999 0.44073 0.34564 0.58089 0.56292 0.36313 0.56292-0.05494 0-0.2633-0.20836-0.46302-0.46302zm-1.7766-0.33073c0-0.3638 0.06005-0.51263 0.13345-0.33073 0.0734 0.1819 0.0734 0.47956 0 0.66146s-0.13345 0.03307-0.13345-0.33073zm17.024-0.52917c0.26339-0.29104 0.53842-0.52917 0.61118-0.52917 0.07276 0-0.08321 0.23812-0.3466 0.52917-0.26339 0.29104-0.53842 0.52917-0.61118 0.52917-0.07276 0 0.08321-0.23812 0.3466-0.52917zm-1.4552-0.62906c0-0.05494 0.20836-0.2633 0.46302-0.46302 0.41964-0.32911 0.429-0.31975 0.0999 0.0999-0.34564 0.44073-0.56292 0.58089-0.56292 0.36313zm-27.914-5.1918c0.71666-0.7276 1.3626-1.3229 1.4353-1.3229s-0.45407 0.59531-1.1707 1.3229c-0.71666 0.7276-1.3626 1.3229-1.4353 1.3229s0.45407-0.59531 1.1707-1.3229zm42.056-0.06615-1.0459-1.1245 1.1245 1.0459c1.0458 0.97266 1.2461 1.2031 1.0459 1.2031-0.04323 0-0.54924-0.50602-1.1245-1.1245zm-25.834-7.5229c0.191-0.07643 0.4192-0.06703 0.50712 0.02089 0.08792 0.08792-0.06835 0.15045-0.34727 0.13896-0.30822-0.01269-0.37092-0.07539-0.15985-0.15985zm1.8355-0.25907c0.1819-0.0734 0.47956-0.0734 0.66146 0s0.03307 0.13345-0.33073 0.13345c-0.3638 0-0.51263-0.06005-0.33073-0.13345zm5.5562 0c0.1819-0.0734 0.47956-0.0734 0.66146 0s0.03307 0.13345-0.33073 0.13345c-0.3638 0-0.51263-0.06005-0.33073-0.13345zm-5.4189-0.80188c0.25743-0.06708 0.61462-0.06267 0.79375 0.0098 0.17913 0.07248-0.03149 0.12736-0.46806 0.12197-0.43656-0.0054-0.58313-0.06469-0.32569-0.13177zm5.2917 0c0.25743-0.06708 0.61462-0.06267 0.79375 0.0098 0.17913 0.07248-0.03149 0.12736-0.46806 0.12197-0.43656-0.0054-0.58312-0.06469-0.32569-0.13177z" fill="#9ea4a8"/>
<path d="m31.929 61.517c-0.32911-0.41964-0.31975-0.429 0.09989-0.0999 0.25466 0.19972 0.46302 0.40808 0.46302 0.46302 0 0.21776-0.21727 0.0776-0.56292-0.36312zm39.721 0.11565c0-0.04554 0.38695-0.43249 0.8599-0.8599l0.8599-0.7771-0.7771 0.8599c-0.72437 0.80154-0.94269 0.98151-0.94269 0.77711zm-37.253-13.199c-0.43944-0.43944-0.3969-1.1528 0.09827-1.648 0.36936-0.36936 2.3165-0.41577 17.444-0.41577s17.074 0.04641 17.444 0.41577c0.48756 0.48756 0.51399 0.75841 0.14188 1.4537-0.2665 0.49795-0.74032 0.51177-17.542 0.51177-13.078 0-17.345-0.07704-17.585-0.3175zm2.2401-14.411c-0.35606-0.35606-0.16178-1.3423 0.35688-1.8117l0.53327-0.4826-0.53327-0.56764c-0.2933-0.3122-0.53327-0.87914-0.53327-1.2598 0-0.9106 1.0638-2.5556 1.662-2.5698 0.74333-0.01766 0.84472 0.74751 0.21238 1.6028l-0.57819 0.78204 0.54255 0.68975c0.66983 0.85155 0.68468 1.4201 0.05842 2.2363-0.26627 0.34705-0.56019 0.83935-0.65315 1.094-0.16951 0.46436-0.73738 0.61683-1.0676 0.28663zm28.575 0c-0.353-0.353-0.16376-1.3405 0.34515-1.8011 0.519-0.46969 0.519-0.47522 0-1.135-0.66953-0.85117-0.66623-1.9662 0.0076-2.576 0.29104-0.26339 0.52917-0.64731 0.52917-0.85316 0-0.55879 1.1668-0.30183 1.278 0.28145 0.05104 0.26764-0.17027 0.76664-0.49179 1.1089l-0.58458 0.62226 0.56064 0.71273c0.66703 0.84799 0.7225 1.7652 0.1362 2.2517-0.23344 0.19374-0.52815 0.62504-0.65491 0.95844-0.22291 0.5863-0.76284 0.79248-1.1255 0.4298zm-21.872-4.8183c0-0.41874 0.17859-0.90957 0.39688-1.0907 0.21828-0.18116 0.39688-0.44236 0.39688-0.58046s-0.17859-0.42968-0.39688-0.64796c-0.60772-0.60772-0.47787-1.8757 0.29599-2.8903 0.79287-1.0395 1.3099-1.1548 1.5657-0.34901 0.11833 0.37283-0.01254 0.81648-0.39243 1.3303l-0.56997 0.77093 0.54256 0.68975c0.70982 0.9024 0.68475 1.3108-0.15489 2.5224-0.85624 1.2356-1.6838 1.356-1.6838 0.24506zm15.258 0.58496c-0.33336-0.33336-0.17554-0.98103 0.38425-1.5769l0.56064-0.59677-0.56064-0.71273c-0.66703-0.84799-0.72251-1.7652-0.1362-2.2517 0.23344-0.19374 0.53144-0.6337 0.66223-0.97769 0.31352-0.82463 1.1358-0.67695 1.241 0.22288 0.04862 0.41595-0.12532 0.85761-0.4554 1.1563-0.53199 0.48144-0.53204 0.4859-0.01252 1.1464 0.66953 0.85117 0.66623 1.9662-0.0076 2.576-0.29104 0.26339-0.52917 0.63903-0.52917 0.83476 0 0.36525-0.83071 0.49529-1.1465 0.17948zm-28.222-8.9193c0-0.05494 0.20836-0.2633 0.46302-0.46302 0.41964-0.32911 0.429-0.31975 0.0999 0.0999-0.34564 0.44073-0.56292 0.58089-0.56292 0.36313zm41.506-1.4215c-0.32911-0.41964-0.31975-0.429 0.0999-0.0999 0.44073 0.34564 0.58089 0.56292 0.36312 0.56292-0.05494 0-0.2633-0.20836-0.46302-0.46302z" fill="#fff"/>
<path d="m48.546 69.894c-6.7632-0.71424-13.266-3.9766-18.127-9.0935-11.276-11.87-10.768-30.595 1.1361-41.903 4.1728-3.9638 9.4246-6.6298 15.236-7.7341 2.1999-0.41807 8.0955-0.41807 10.295 0 7.3965 1.4057 14.123 5.5288 18.557 11.375 1.7307 2.282 4.0391 6.9736 4.8617 9.8811 4.9682 17.56-7.3375 35.619-25.545 37.488-2.9611 0.30387-3.4142 0.30289-6.4137-0.01386zm10.307-1.265c9.4711-2.3771 17.422-9.6587 20.549-18.819 1.2078-3.5381 1.5871-6.3182 1.4258-10.451-0.16753-4.2922-0.72233-6.858-2.2482-10.397-3.4951-8.1069-10.593-14.236-19.291-16.657-2.3775-0.66185-2.9768-0.7206-7.351-0.7206-4.3742 0-4.9735 0.05875-7.351 0.7206-10.216 2.8438-17.917 10.539-20.756 20.739-0.66894 2.4039-0.72672 2.9902-0.72672 7.374 0 4.3742 0.05875 4.9735 0.7206 7.351 3.0105 10.814 11.359 18.727 22.254 21.092 3.2214 0.69921 9.5216 0.58525 12.774-0.23105zm-22.836-25c0.41405-3.0208 2.8693-7.2482 5.4246-9.3398 2.004-1.6404 4.7977-2.936 7.5186-3.4869 2.1416-0.43357 2.2216-0.47557 1.9721-1.0347-0.32836-0.73589 0.15548-1.3891 1.0289-1.3891 0.75994 0 1.299 0.8704 0.93828 1.515-0.22104 0.39497 0.02003 0.50464 1.9825 0.90196 6.2561 1.2666 11.1 5.7073 12.673 11.618 0.70427 2.6464 2.5354 2.3693-15.653 2.3693h-16.043zm7.1261-6.4545c1.2145-1.233 2.5139-2.0495 4.4956-2.8246 1.0409-0.40719 1.2553-0.92572 0.60555-1.465-0.8029-0.66634-3.8647 0.81902-6.1618 2.9892-1.442 1.3624-1.6064 1.7062-1.0716 2.241 0.51872 0.51872 0.83013 0.38135 2.1322-0.94065z" fill="#fff"/>
</g>
</svg>
