<svg aria-hidden="true" style="position: absolute; width: 0; height: 0; overflow: hidden;" version="1.1" xmlns="http://www.w3.org/2000/svg" xmlns:xlink="http://www.w3.org/1999/xlink">
    <defs>
        <symbol id="logo" viewBox="0 0 24 24">
            <path d="M4.974 15.114c-.745-.745.715-.782.976-.791 1.768-.063 3.541-.037 5.31-.038 2.12-.001 4.241-.019 6.361.025.302.006 1.159-.111 1.412.142.544.544-.144.718-.498.741-1.35.088-2.716.046-4.068.048-2.452.002-4.904.012-7.356-.019-.673-.008-1.482.083-2.137-.108zm.9-5.791c-.288-.288.135-.749.358-.922-.353-.324-.527-.704-.309-1.163.319-.674 1.161-.673.633.041-.06.149-.293.237-.176.386.151.192.362.4.369.66.008.31-.49 1.248-.875.998zm11.483 0c-.187-.187-.019-.581.139-.724.311-.282-.04-.415-.151-.728-.157-.44.098-.612.304-.944.108-.174.484-.535.576-.05.047.245-.223.472-.372.631-.113.121.26.468.319.609.155.367-.369 1.469-.815 1.206zM8.568 7.387c0-.294.319-.438.319-.672 0-.234-.304-.384-.313-.657-.013-.38.213-.764.49-1.008.456-.402.435.392.253.638-.038.16-.298.222-.173.382.134.171.326.356.36.579.073.471-.975 1.475-.936.738zm6.131.235c-.391-.391.543-.666.213-1.086-.173-.219-.358-.511-.242-.803.066-.165.482-.819.675-.784.361.065.209.612.035.769-.317.287.032.413.146.732.135.377-.315 1.505-.827 1.172z"/>
            <path d="M10.636 23.835c-5.091-.538-9.374-4.577-10.338-9.577-.912-4.726 1.194-9.659 5.236-12.275 4.065-2.631 9.4-2.485 13.352.289 3.884 2.727 5.811 7.749 4.728 12.371-1.372 5.851-7.019 9.832-12.978 9.192zm4.141-.508c4.825-1.211 8.695-5.653 8.839-10.689.149-5.203-2.846-9.888-7.804-11.671-3.87-1.392-8.36-.454-11.445 2.221C1.259 5.884-.372 10.335.561 14.406c1.443 6.3 7.86 10.483 14.216 8.921zM5.601 13.281c.309-2.257 2.143-4.136 4.219-4.879.502-.18 1.019-.263 1.534-.395.423-.109.176-.188.201-.508.032-.407.622-.445.811-.139.149.241-.158.497.144.604.961.342 1.906.441 2.81.972a6.473 6.473 0 0 1 2.173 2.08c.29.452 1.134 1.785.937 2.43-.122.399-1.336.285-1.609.29-1.652.034-3.306.008-4.959.008H5.537c.021-.151.025-.316.064-.463zm2.863-2.594c.612-.622 1.387-.775 2.058-1.266.213-.156.145-.438-.107-.507-.293-.08-.66.099-.914.222-.656.318-1.65.92-1.976 1.603-.085.177.086.43.281.438.239.011.523-.347.658-.49z"/>
        </symbol>
    </defs>
</svg>