<?xml version="1.0" encoding="UTF-8" standalone="no"?>
<!-- Created with Inkscape (http://www.inkscape.org/) -->

<svg
   width="210mm"
   height="297mm"
   viewBox="0 0 210 297"
   version="1.1"
   id="svg15457"
   sodipodi:docname="Transparent.svg"
   inkscape:version="1.1.1 (3bf5ae0d25, 2021-09-20)"
   xmlns:inkscape="http://www.inkscape.org/namespaces/inkscape"
   xmlns:sodipodi="http://sodipodi.sourceforge.net/DTD/sodipodi-0.dtd"
   xmlns="http://www.w3.org/2000/svg"
   xmlns:svg="http://www.w3.org/2000/svg">
  <sodipodi:namedview
     id="namedview15459"
     pagecolor="#ffffff"
     bordercolor="#666666"
     borderopacity="1.0"
     inkscape:pageshadow="2"
     inkscape:pageopacity="0.0"
     inkscape:pagecheckerboard="0"
     inkscape:document-units="mm"
     showgrid="false"
     inkscape:zoom="2.0460067"
     inkscape:cx="351.41624"
     inkscape:cy="159.57914"
     inkscape:window-width="1920"
     inkscape:window-height="1001"
     inkscape:window-x="-9"
     inkscape:window-y="-9"
     inkscape:window-maximized="1"
     inkscape:current-layer="layer1"
     units="px" />
  <defs
     id="defs15454" />
  <g
     inkscape:label="Ebene 1"
     inkscape:groupmode="layer"
     id="layer1">
    <g
       id="g98912"
       transform="translate(74.798645,1.4630542)">
      <path
         style="fill:#000000;stroke-width:1;fill-opacity:0"
         d="m 22.196541,56.887184 c 0.02199,-12.315605 0.05138,-13.142367 0.398744,-11.219727 0.940718,5.206751 3.367065,10.235096 6.944412,14.391547 4.143757,4.814552 10.732387,8.541854 17.148142,9.701006 1.922638,0.347369 1.095876,0.376751 -11.219728,0.398743 l -13.295313,0.02374 z M 57.189008,69.76001 C 69.29024,67.57365 79.095201,57.768689 81.281561,45.667457 c 0.347369,-1.92264 0.376751,-1.095878 0.398743,11.219727 l 0.02374,13.295313 -13.295312,-0.02373 C 56.09313,70.136777 55.266368,70.10739 57.189008,69.760021 Z M 48.090107,69.097848 C 41.790323,68.28308 35.197966,64.850079 30.78941,60.088431 16.562317,44.721854 22.771348,19.992367 42.595153,13.068217 c 2.422933,-0.846293 6.851186,-1.62322 9.251875,-1.62322 5.928021,0 12.627515,2.240377 17.357482,5.804513 13.783627,10.386275 15.58,30.205001 3.882927,42.838921 -6.28895,6.792648 -15.755819,10.204651 -24.99733,9.009417 z M 69.480298,48.433747 c 0.40812,-0.40812 0.40812,-1.33813 0,-1.74625 -0.458978,-0.458978 -34.624772,-0.458978 -35.08375,0 -0.40812,0.40812 -0.40812,1.33813 0,1.74625 0.458978,0.458978 34.624772,0.458978 35.08375,0 z m -1.420344,-4.378854 c -0.883656,-4.007752 -2.136955,-6.379173 -4.720217,-8.931311 -2.686413,-2.654045 -6.797498,-4.628585 -9.636932,-4.628585 -0.767956,0 -0.798335,-0.04151 -0.658953,-0.90043 0.120902,-0.745013 0.04375,-0.955216 -0.446976,-1.217845 -0.448691,-0.240132 -0.754055,-0.244078 -1.254181,-0.01621 -0.571426,0.260359 -0.640908,0.425524 -0.512331,1.217846 0.142407,0.877549 0.114419,0.916635 -0.656323,0.916635 -2.922354,0 -6.969518,1.975124 -9.747626,4.7571 -2.512313,2.515812 -3.930243,5.171159 -4.629968,8.670504 l -0.171944,0.859896 h 16.297939 16.297937 z m -26.77101,-5.818391 c -0.710745,-0.242163 -0.296358,-1.264516 1.009457,-2.49048 2.690476,-2.525952 6.902426,-3.86849 6.17299,-1.96761 -0.0888,0.231413 -0.334686,0.420752 -0.54641,0.420752 -0.839213,0 -3.24508,1.388458 -4.733966,2.732035 -0.864238,0.779893 -1.72017,1.367279 -1.902071,1.305303 z m -3.144838,-5.043747 c 0.829643,-1.197176 0.890649,-2.17631 0.1759,-2.823149 -0.519,-0.469689 -0.519,-0.47522 0,-1.135022 1.233088,-1.567617 0.146771,-2.85447 -1.126346,-1.334272 -1.061864,1.267945 -1.176218,1.958991 -0.480005,2.90067 0.515293,0.696971 0.540209,0.846024 0.206532,1.235491 -0.521877,0.609133 -0.737024,1.292953 -0.555569,1.765816 0.268033,0.698484 1.061343,0.426749 1.779488,-0.609534 z m 28.575,0 c 0.829644,-1.197176 0.890649,-2.17631 0.175901,-2.823149 -0.519002,-0.469689 -0.519002,-0.47522 0,-1.135022 1.22855,-1.561849 0.143679,-2.863671 -1.111914,-1.334272 -1.023322,1.246479 -1.155105,2.007071 -0.501031,2.891751 l 0.544091,0.735925 -0.532987,0.903346 c -1.052121,1.783215 0.239774,2.473059 1.42594,0.761421 z M 44.641367,29.624228 c 0.126759,-0.333403 0.421469,-0.7647 0.654909,-0.958439 0.580015,-0.481369 0.533417,-1.665053 -0.0971,-2.466629 -0.519516,-0.660457 -0.519467,-0.664911 0.01252,-1.146355 0.722289,-0.653662 0.590577,-1.803483 -0.219769,-1.918553 -0.388115,-0.05511 -0.658029,0.08353 -0.77264,0.396875 -0.09688,0.264868 -0.394004,0.765525 -0.660276,1.112572 -0.627556,0.81793 -0.611323,1.384901 0.06424,2.243742 l 0.548372,0.697139 -0.548371,0.69714 c -0.627288,0.797468 -0.681508,1.180555 -0.23087,1.631194 0.49288,0.49288 0.996053,0.376578 1.248985,-0.288686 z m 15.45362,-0.283694 c 0.998194,-1.308702 1.106311,-2.042452 0.428006,-2.904774 -0.508405,-0.646332 -0.529672,-0.780109 -0.187462,-1.179173 0.851434,-0.992892 0.821571,-2.169923 -0.05506,-2.169923 -0.601938,0 -1.859759,1.816091 -1.859759,2.685193 0,0.369807 0.234693,0.884771 0.521541,1.144365 0.519001,0.469688 0.519001,0.47522 0,1.135021 -0.514895,0.654584 -0.688131,1.659803 -0.345152,2.002782 0.370256,0.370255 0.84304,0.145052 1.497883,-0.713491 z M 22.20883,23.946559 22.172798,10.651247 35.468111,10.67499 c 12.315604,0.02199 13.142366,0.05138 11.219728,0.398744 -2.919943,0.527554 -5.708116,1.513423 -8.700727,3.076489 -8.441988,4.409318 -14.071578,12.484021 -15.638073,22.430191 -0.0573,0.363802 -0.120392,-5.321433 -0.140209,-12.633855 z m 59.230635,12.403198 c 0,-1.477305 -1.311334,-5.901376 -2.481295,-8.371188 C 74.72408,19.04032 66.67128,12.786921 57.189008,11.073734 55.266368,10.726366 56.09313,10.696983 68.408736,10.67499 l 13.295312,-0.02374 v 13.229167 c 0,7.276041 -0.05953,13.229166 -0.132292,13.229166 -0.07276,0 -0.132291,-0.34192 -0.132291,-0.759823 z"
         id="path98920" />
      <path
         style="fill:#9ea4a8;stroke-width:1"
         d="m 48.966896,69.999143 c 0.257431,-0.06708 0.614619,-0.06267 0.79375,0.0098 0.17913,0.07248 -0.03149,0.127363 -0.468056,0.121971 -0.436563,-0.0054 -0.583126,-0.06469 -0.325694,-0.131773 z m 5.291666,0 c 0.257432,-0.06708 0.614619,-0.06267 0.79375,0.0098 0.179131,0.07248 -0.03149,0.127363 -0.468056,0.121971 -0.436562,-0.0054 -0.583125,-0.06469 -0.325694,-0.131773 z m -5.428993,-0.785624 c 0.181901,-0.0734 0.479557,-0.0734 0.661458,0 0.181901,0.0734 0.03307,0.133453 -0.330729,0.133453 -0.363802,0 -0.51263,-0.06005 -0.330729,-0.133453 z m 5.428993,-0.0081 c 0.257432,-0.06708 0.614619,-0.06267 0.79375,0.0098 0.179131,0.07248 -0.03149,0.127363 -0.468056,0.12197 -0.436562,-0.0054 -0.583125,-0.06469 -0.325694,-0.131773 z m 2.26046,-0.261969 c 0.190995,-0.07643 0.419198,-0.06703 0.507119,0.02088 0.08792,0.08792 -0.06835,0.150453 -0.347266,0.138965 -0.308226,-0.0127 -0.370919,-0.07539 -0.159853,-0.159851 z m -23.00289,-6.103118 c -0.329107,-0.419645 -0.319749,-0.429003 0.0999,-0.0999 0.254662,0.199721 0.463021,0.408081 0.463021,0.463021 0,0.217763 -0.217272,0.0776 -0.562916,-0.363125 z m -2.754322,-1.455208 -1.31297,-1.389062 1.389062,1.312971 c 0.763985,0.722132 1.389063,1.34721 1.389063,1.389062 0,0.19743 -0.245119,-0.02223 -1.465155,-1.312971 z m 42.078696,0.06615 c 0.568389,-0.582083 1.092968,-1.058333 1.165728,-1.058333 0.07276,0 -0.332756,0.47625 -0.901144,1.058333 -0.568389,0.582083 -1.092968,1.058333 -1.165728,1.058333 -0.07276,0 0.332756,-0.47625 0.901144,-1.058333 z M 31.134882,60.723643 c -0.329107,-0.419645 -0.319749,-0.429004 0.0999,-0.0999 0.254662,0.19972 0.463021,0.40808 0.463021,0.463021 0,0.217762 -0.217272,0.0776 -0.562916,-0.363125 z M 80.40202,45.157324 c 0.0127,-0.308226 0.07539,-0.370919 0.159851,-0.159853 0.07643,0.190995 0.06703,0.419198 -0.02088,0.507119 -0.08792,0.08792 -0.150452,-0.06835 -0.138964,-0.347266 z M 22.224378,43.062705 c 0.0054,-0.436562 0.06469,-0.583125 0.131774,-0.325694 0.06708,0.257432 0.06267,0.614619 -0.0098,0.79375 -0.07248,0.179131 -0.127362,-0.03149 -0.12197,-0.468056 z m 0.783946,0.132292 c 0,-0.363802 0.06005,-0.51263 0.133452,-0.330729 0.0734,0.181901 0.0734,0.479557 0,0.661458 -0.0734,0.181901 -0.133452,0.03307 -0.133452,-0.330729 z m 57.679166,0 c 0,-0.363802 0.06006,-0.51263 0.133453,-0.330729 0.0734,0.181901 0.0734,0.479557 0,0.661458 -0.0734,0.181901 -0.133453,0.03307 -0.133453,-0.330729 z m 0.803555,-0.132292 c 0.0054,-0.436562 0.06469,-0.583125 0.131773,-0.325694 0.06708,0.257432 0.06267,0.614619 -0.0098,0.79375 -0.07248,0.179131 -0.127362,-0.03149 -0.12197,-0.468056 z m 0.0098,-5.159375 c 0,-0.509323 0.05445,-0.717682 0.121002,-0.463021 0.06655,0.254662 0.06655,0.671381 0,0.926042 -0.06655,0.254662 -0.121002,0.0463 -0.121002,-0.463021 z M 22.224378,37.771039 c 0.0054,-0.436563 0.06469,-0.583126 0.131774,-0.325694 0.06708,0.257431 0.06267,0.614619 -0.0098,0.79375 -0.07248,0.17913 -0.127362,-0.03149 -0.12197,-0.468056 z m 20.453628,-0.396875 c 0.56839,-0.582084 1.092967,-1.058334 1.165727,-1.058334 0.07276,0 -0.332754,0.47625 -0.901143,1.058334 -0.56839,0.582083 -1.092967,1.058333 -1.165727,1.058333 -0.07276,0 0.332754,-0.47625 0.901143,-1.058333 z m 38.019289,0.396875 c 0.0054,-0.436563 0.06469,-0.583126 0.131773,-0.325694 0.06708,0.257431 0.06267,0.614619 -0.0098,0.79375 -0.07248,0.17913 -0.127362,-0.03149 -0.12197,-0.468056 z M 23.008324,37.638747 c 0,-0.363802 0.06005,-0.51263 0.133452,-0.330729 0.0734,0.181901 0.0734,0.479557 0,0.661458 -0.0734,0.181901 -0.133452,0.03307 -0.133452,-0.330729 z m 41.199474,-1.521354 c -0.329108,-0.419644 -0.319749,-0.429002 0.0999,-0.09989 0.44073,0.345644 0.580887,0.562916 0.363125,0.562916 -0.05494,0 -0.263301,-0.20836 -0.463021,-0.463021 z m 16.194222,-0.48507 c 0.0127,-0.308224 0.07539,-0.370919 0.159851,-0.159852 0.07643,0.190996 0.06703,0.419199 -0.02088,0.507118 -0.08792,0.08792 -0.150452,-0.06835 -0.138964,-0.347266 z M 37.783215,33.305519 c 0,-0.05494 0.208359,-0.263302 0.46302,-0.463021 0.419644,-0.329107 0.429003,-0.319749 0.0999,0.0999 -0.345643,0.440729 -0.562915,0.580887 -0.562915,0.363126 z m 28.575,0 c 0,-0.05494 0.208359,-0.263302 0.46302,-0.463021 0.419646,-0.329107 0.429004,-0.319749 0.0999,0.0999 -0.345644,0.440729 -0.562917,0.580887 -0.562917,0.363126 z M 47.523189,32.695506 c 0.190996,-0.07643 0.419199,-0.06703 0.507118,0.02089 0.08792,0.08792 -0.06835,0.150453 -0.347266,0.138965 -0.308224,-0.0127 -0.370919,-0.07539 -0.159852,-0.159853 z M 36.857173,32.082497 c 0.263389,-0.291042 0.53842,-0.529167 0.611181,-0.529167 0.07276,0 -0.08321,0.238125 -0.346598,0.529167 -0.263389,0.291042 -0.53842,0.529167 -0.611181,0.529167 -0.07276,0 0.08321,-0.238125 0.346598,-0.529167 z m 28.442708,0.164689 c 0,-0.05494 0.20836,-0.263302 0.463021,-0.463021 0.419645,-0.329108 0.429004,-0.319749 0.0999,0.09989 -0.345643,0.44073 -0.562917,0.580888 -0.562917,0.363127 z m -29.06239,-2.545939 c 0,-0.363802 0.06005,-0.51263 0.133452,-0.330729 0.0734,0.181901 0.0734,0.479557 0,0.661458 -0.0734,0.181901 -0.133452,0.03307 -0.133452,-0.330729 z m 7.366557,0.427734 c 0,-0.05579 0.238289,-0.163747 0.529532,-0.239909 0.291242,-0.07616 0.462809,-0.03052 0.38126,0.101433 -0.142412,0.230428 -0.910792,0.347251 -0.910792,0.138476 z m 14.964209,-0.138476 c -0.08155,-0.13195 0.09002,-0.177595 0.381259,-0.101433 0.6178,0.161558 0.695894,0.341342 0.148273,0.341342 -0.209693,0 -0.447982,-0.107959 -0.529532,-0.239909 z m 6.223347,-0.179015 c 0.0127,-0.308224 0.07539,-0.370919 0.15985,-0.159852 0.07643,0.190996 0.06703,0.419199 -0.02088,0.507118 -0.08792,0.08792 -0.150453,-0.06835 -0.138965,-0.347266 z M 37.783215,29.601352 c 0,-0.05494 0.208359,-0.263301 0.46302,-0.463021 0.419644,-0.329107 0.429003,-0.319749 0.0999,0.0999 -0.345643,0.440729 -0.562915,0.580887 -0.562915,0.363126 z m 5.312554,-0.319029 c 0.0127,-0.308224 0.07539,-0.370919 0.159853,-0.159852 0.07643,0.190996 0.06703,0.419199 -0.02089,0.507118 -0.08792,0.08792 -0.150453,-0.06835 -0.138964,-0.347266 z m 16.647862,0.239445 c 0,-0.14722 0.267891,-0.494486 0.595313,-0.771701 l 0.595312,-0.504028 -0.526346,0.661458 c -0.289491,0.363802 -0.557382,0.711068 -0.595312,0.771701 -0.03793,0.06063 -0.06897,-0.01021 -0.06897,-0.15743 z m 6.614584,0.07958 c 0,-0.05494 0.208359,-0.263301 0.46302,-0.463021 0.419646,-0.329107 0.429004,-0.319749 0.0999,0.0999 -0.345644,0.440729 -0.562917,0.580887 -0.562917,0.363126 z m -29.897917,-0.79375 c 0,-0.05494 0.208359,-0.263301 0.463021,-0.463021 0.419644,-0.329107 0.429002,-0.319749 0.0999,0.0999 -0.345644,0.440729 -0.562916,0.580887 -0.562916,0.363126 z m 28.999908,-0.469504 c 0.275624,-0.38593 0.55405,-0.650513 0.618725,-0.587963 0.06468,0.06255 -0.160832,0.378311 -0.501131,0.701691 l -0.618728,0.587963 z m -6.774908,-0.05966 c 0,-0.05494 0.208359,-0.263302 0.463021,-0.463021 0.419645,-0.329108 0.429003,-0.319749 0.0999,0.09989 -0.345644,0.44073 -0.562917,0.580888 -0.562917,0.363127 z m 2.137556,-0.848196 c 0.0127,-0.308224 0.07539,-0.370919 0.15985,-0.159852 0.07643,0.190996 0.06703,0.419199 -0.02087,0.507118 -0.08792,0.08792 -0.150453,-0.06835 -0.138965,-0.347266 z M 44.893216,26.063226 c -0.329108,-0.419644 -0.319749,-0.429002 0.09989,-0.0999 0.44073,0.345644 0.580888,0.562916 0.363127,0.562916 -0.05494,0 -0.263302,-0.208359 -0.463021,-0.463021 z m -1.776558,-0.330729 c 0,-0.363802 0.06005,-0.51263 0.133452,-0.330729 0.0734,0.181901 0.0734,0.479557 0,0.661458 -0.0734,0.181901 -0.133452,0.03307 -0.133452,-0.330729 z M 60.140506,25.20333 c 0.26339,-0.291041 0.538422,-0.529166 0.611183,-0.529166 0.07276,0 -0.08321,0.238125 -0.346599,0.529166 -0.26339,0.291042 -0.538422,0.529167 -0.611183,0.529167 -0.07276,0 0.08321,-0.238125 0.346599,-0.529167 z m -1.455208,-0.629061 c 0,-0.05494 0.208359,-0.263302 0.463021,-0.463021 0.419645,-0.329107 0.429003,-0.319749 0.0999,0.0999 -0.345644,0.440729 -0.562917,0.580887 -0.562917,0.363126 z M 30.771756,19.382497 c 0.716664,-0.727604 1.362556,-1.322917 1.435316,-1.322917 0.07276,0 -0.454069,0.595313 -1.170732,1.322917 -0.716664,0.727604 -1.362556,1.322917 -1.435316,1.322917 -0.07276,0 0.454069,-0.595313 1.170732,-1.322917 z m 42.056302,-0.06615 -1.045885,-1.124479 1.124479,1.045884 c 1.045755,0.972662 1.246063,1.203074 1.045885,1.203074 -0.04323,0 -0.549243,-0.506015 -1.124479,-1.124479 z M 46.994022,11.793423 c 0.190996,-0.07643 0.419199,-0.06703 0.507118,0.02089 0.08792,0.08792 -0.06835,0.150453 -0.347266,0.138964 -0.308224,-0.01269 -0.370919,-0.07539 -0.159852,-0.159852 z m 1.835547,-0.259071 c 0.181901,-0.0734 0.479557,-0.0734 0.661458,0 0.181901,0.0734 0.03307,0.133452 -0.330729,0.133452 -0.363802,0 -0.51263,-0.06005 -0.330729,-0.133452 z m 5.55625,0 c 0.181901,-0.0734 0.479557,-0.0734 0.661458,0 0.181901,0.0734 0.03307,0.133452 -0.330729,0.133452 -0.363802,0 -0.51263,-0.06005 -0.330729,-0.133452 z m -5.418923,-0.801875 c 0.257431,-0.06708 0.614619,-0.06267 0.79375,0.0098 0.17913,0.07248 -0.03149,0.127362 -0.468056,0.12197 -0.436563,-0.0054 -0.583126,-0.06469 -0.325694,-0.131773 z m 5.291666,0 c 0.257432,-0.06708 0.614619,-0.06267 0.79375,0.0098 0.179131,0.07248 -0.03149,0.127362 -0.468056,0.12197 -0.436562,-0.0054 -0.583125,-0.06469 -0.325694,-0.131773 z"
         id="path98918" />
      <path
         style="fill:#ffffff;stroke-width:1"
         d="m 31.928632,61.517393 c -0.329107,-0.419645 -0.319749,-0.429004 0.09989,-0.0999 0.254662,0.19972 0.463021,0.40808 0.463021,0.463021 0,0.217762 -0.217272,0.0776 -0.562916,-0.363125 z m 39.721249,0.115647 c 0,-0.04554 0.386953,-0.432488 0.859896,-0.859896 l 0.859896,-0.777105 -0.777105,0.859895 c -0.724371,0.801545 -0.942687,0.981512 -0.942687,0.777106 z M 34.396548,48.433747 c -0.439439,-0.439439 -0.396899,-1.152803 0.09827,-1.647976 0.369362,-0.369363 2.316536,-0.415774 17.443601,-0.415774 15.127065,0 17.07424,0.04641 17.443601,0.415774 0.487555,0.487556 0.51399,0.75841 0.141883,1.453703 -0.266497,0.497949 -0.740318,0.511773 -17.541875,0.511773 -13.077877,0 -17.345026,-0.07704 -17.585484,-0.3175 z m 2.240139,-14.410972 c -0.356062,-0.356062 -0.161781,-1.342317 0.356883,-1.811702 l 0.533273,-0.482605 -0.533273,-0.567642 c -0.293299,-0.312204 -0.533272,-0.879135 -0.533272,-1.259848 0,-0.9106 1.063849,-2.555571 1.66195,-2.569782 0.743333,-0.01766 0.844724,0.747506 0.212382,1.602794 l -0.57819,0.782045 0.542554,0.689746 c 0.669829,0.851549 0.684682,1.42011 0.05842,2.236347 -0.266272,0.347047 -0.560191,0.839353 -0.653154,1.094015 -0.169514,0.464361 -0.737382,0.616827 -1.067577,0.286632 z m 28.575001,0 c -0.353005,-0.353003 -0.163759,-1.340528 0.345151,-1.801086 0.519002,-0.469689 0.519002,-0.47522 0,-1.135022 -0.669533,-0.851174 -0.666231,-1.966212 0.0076,-2.576045 0.291041,-0.263389 0.529166,-0.647311 0.529166,-0.853159 0,-0.558787 1.166789,-0.301831 1.278015,0.28145 0.05104,0.267644 -0.170268,0.766642 -0.491789,1.108885 l -0.584584,0.62226 0.560639,0.712734 c 0.66703,0.847993 0.722505,1.765154 0.136197,2.251747 -0.23344,0.193739 -0.528148,0.625036 -0.654908,0.958439 -0.222911,0.586296 -0.762836,0.792476 -1.125513,0.429797 z M 43.339465,29.204477 c 0,-0.418744 0.178593,-0.909573 0.396875,-1.09073 0.218281,-0.181157 0.396875,-0.442365 0.396875,-0.580462 0,-0.138097 -0.178594,-0.429679 -0.396875,-0.647961 -0.607721,-0.607721 -0.477871,-1.875693 0.295986,-2.890272 0.792867,-1.039502 1.309949,-1.154765 1.565687,-0.349008 0.118332,0.372834 -0.01254,0.816477 -0.392433,1.330311 l -0.569974,0.77093 0.542555,0.689746 c 0.709824,0.902396 0.684746,1.310797 -0.154888,2.52239 -0.856238,1.235552 -1.683808,1.355994 -1.683808,0.245056 z m 15.257639,0.584964 c -0.333361,-0.33336 -0.17554,-0.981034 0.384247,-1.576901 l 0.560639,-0.596771 -0.560639,-0.712734 c -0.667031,-0.847993 -0.722506,-1.765154 -0.136197,-2.251747 0.233439,-0.193738 0.531442,-0.633699 0.662228,-0.97769 0.313524,-0.824627 1.135777,-0.676946 1.24096,0.222883 0.04862,0.415947 -0.125318,0.857607 -0.455396,1.156324 -0.53199,0.481444 -0.53204,0.485898 -0.01252,1.146355 0.669534,0.851174 0.666232,1.966212 -0.0076,2.576045 -0.291041,0.263389 -0.529166,0.63903 -0.529166,0.834758 0,0.365253 -0.830713,0.495294 -1.146527,0.179478 z M 30.374881,20.870102 c 0,-0.05494 0.20836,-0.263301 0.463021,-0.463021 0.419644,-0.329107 0.429002,-0.319749 0.0999,0.0999 -0.345644,0.440729 -0.562916,0.580887 -0.562916,0.363126 z m 41.505833,-1.421459 c -0.329107,-0.419644 -0.319749,-0.429002 0.0999,-0.0999 0.44073,0.345644 0.580888,0.562916 0.363125,0.562916 -0.05494,0 -0.2633,-0.20836 -0.463021,-0.463021 z"
         id="path98916" />
      <path
         style="fill:#ffffff;stroke-width:1"
         d="m 48.545985,69.893556 c -6.763198,-0.714235 -13.266401,-3.9766 -18.126922,-9.093464 -11.27579,-11.870474 -10.768104,-30.594713 1.13614,-41.90258 4.172801,-3.963754 9.424631,-6.629767 15.235534,-7.734095 2.19986,-0.41807 8.095512,-0.41807 10.295372,0 7.39653,1.405666 14.122812,5.528792 18.556867,11.375124 1.730716,2.281959 4.03906,6.973552 4.861652,9.881058 4.968198,17.560423 -7.337549,35.6194 -25.544957,37.487832 -2.961132,0.303871 -3.414181,0.30289 -6.413686,-0.01386 z M 58.853367,68.628583 C 68.324468,66.251445 76.275475,58.969921 79.402639,49.80958 80.610485,46.271453 80.989768,43.491383 80.828462,39.358539 80.660936,35.066362 80.106129,32.500507 78.580287,28.96129 75.085223,20.854415 67.987074,14.725308 59.289471,12.304057 56.91196,11.642203 56.31265,11.583454 51.938423,11.583454 c -4.374225,0 -4.973538,0.05875 -7.351048,0.720603 -10.215617,2.843837 -17.917425,10.539381 -20.755645,20.738766 -0.668938,2.403887 -0.726725,2.990248 -0.726725,7.374049 0,4.374227 0.05875,4.973537 0.720603,7.351048 3.010528,10.814405 11.359049,18.726981 22.253768,21.091713 3.221365,0.699209 9.52164,0.585251 12.773991,-0.23105 z M 36.017325,43.628885 c 0.414048,-3.020807 2.869316,-7.248172 5.4246,-9.339819 2.00405,-1.640431 4.797678,-2.936035 7.51856,-3.486893 2.141572,-0.433573 2.221613,-0.475567 1.972117,-1.034707 -0.328362,-0.735889 0.155485,-1.389136 1.028909,-1.389136 0.759941,0 1.299003,0.870401 0.938276,1.514988 -0.221036,0.394968 0.02003,0.504644 1.982507,0.901958 6.256104,1.266583 11.100106,5.707297 12.67307,11.617967 0.704271,2.646418 2.53541,2.369254 -15.652903,2.369254 H 35.859205 Z m 7.126053,-6.454535 c 1.214461,-1.233002 2.513927,-2.049481 4.495566,-2.824649 1.040945,-0.407192 1.255284,-0.925725 0.605552,-1.464956 -0.802895,-0.666344 -3.864722,0.819025 -6.161802,2.989245 -1.441996,1.36236 -1.606395,1.706176 -1.071563,2.241007 0.518724,0.518724 0.830132,0.381347 2.132247,-0.940647 z"
         id="path98914" />
    </g>
  </g>
</svg>
