<?xml version="1.0" encoding="utf-8"?>
<!DOCTYPE svg PUBLIC "-//W3C//DTD SVG 1.1//EN" "http://www.w3.org/Graphics/SVG/1.1/DTD/svg11.dtd">
<svg version="1.1" id="Ebene_1" focusable="false" xmlns="http://www.w3.org/2000/svg" xmlns:xlink="http://www.w3.org/1999/xlink"
	 x="0px" y="0px" width="24px" height="24px" viewBox="0 0 24 24" enable-background="new 0 0 24 24" xml:space="preserve">
<path fill="#80974D" d="M11.995,0.712c0.038,0.22,0.755,4.43,0.755,6.037c0,2.452-1.303,4.2-3.23,4.903l0.605,11.161
	C10.158,23.456,9.647,24,9,24H6c-0.642,0-1.158-0.539-1.125-1.186L5.48,11.653C3.548,10.95,2.25,9.197,2.25,6.75
	c0-1.613,0.717-5.817,0.755-6.037c0.15-0.952,2.123-0.966,2.245,0.052v6.619c0.061,0.159,0.708,0.15,0.75,0
	c0.066-1.186,0.37-6.525,0.375-6.647c0.155-0.975,2.095-0.975,2.245,0C8.63,0.862,8.93,6.197,8.995,7.383
	c0.042,0.15,0.694,0.159,0.75,0V0.764C9.867-0.248,11.845-0.239,11.995,0.712z M17.583,14.105l-0.703,8.677
	C16.823,23.438,17.344,24,18,24h2.625c0.623,0,1.125-0.502,1.125-1.125V1.125C21.75,0.506,21.248,0,20.625,0
	C16.758,0,10.247,8.367,17.583,14.105z"/>
</svg>
